# xmcd
#
# Track frame offsets: 
#        150
#        17828
#        37807
#        54671
#        75269
#        91308
#        107407
#        127892
#        143355
#        159715
#        178952
#        190742
#        207329
#        224686
#
# Disc length: 3243 seconds
#
# Revision: 0
# Processed by: cddbd v1.5.2PL0 Copyright (c) Steve Scherf et al.
# Submitted via: ExactAudioCopy v1.0b3
#
DISCID=b50ca90e
DTITLE=Amy Grant - How Nercy Looks From Here
DYEAR=2013
DGENRE=Pop
TTITLE0=If I Could See (What the Angels See)
TTITLE1=Better Not to Know
TTITLE2=Don't Try So Hard
TTITLE3=Deep As it is Wide
TTITLE4=Here
TTITLE5=Shovel in Hand
TTITLE6=Golden
TTITLE7=Our Time is Now
TTITLE8=Not Giving Up
TTITLE9=How Mercy Looks From Here
TTITLE10=Greet the Day
TTITLE11=Free
TTITLE12=Faith
TTITLE13=Threaten Me With Heaven
EXTD=
EXTT0=
EXTT1=
EXTT2=
EXTT3=
EXTT4=
EXTT5=
EXTT6=
EXTT7=
EXTT8=
EXTT9=
EXTT10=
EXTT11=
EXTT12=
EXTT13=
PLAYORDER=
